<svg width="1440" height="689" viewBox="0 0 1440 689" fill="none" xmlns="http://www.w3.org/2000/svg">
<path d="M1360 40.0002C1360 17.9089 1342.09 0.000244141 1320 0.000244141H120C97.9086 0.000244141 80 17.9089 80 40.0002V144C80 166.092 62.0914 184 40 184H0V689H1440V184H1400C1377.91 184 1360 166.092 1360 144V40.0002Z" fill="#0C111F"/>
<path opacity="0.2" d="M1239.27 858.992C1353.74 928.829 1503.15 892.646 1572.99 778.174C1642.83 663.702 1606.65 514.29 1492.17 444.452C1377.7 374.615 1228.29 410.798 1158.45 525.27C1088.61 639.742 1124.8 789.154 1239.27 858.992ZM1432.92 541.571C1493.76 578.685 1512.99 658.089 1475.87 718.924C1438.76 779.759 1359.36 798.988 1298.52 761.873C1237.69 724.759 1218.46 645.355 1255.57 584.521C1292.69 523.686 1372.09 504.456 1432.92 541.571Z" fill="url(#paint0_linear_1_527)"/>
<path opacity="0.2" d="M-112.632 566.524C-26.8241 618.874 85.1745 591.751 137.524 505.944C189.874 420.136 162.751 308.138 76.9439 255.788C-8.8636 203.438 -120.862 230.561 -173.212 316.368C-225.562 402.176 -198.439 514.175 -112.632 566.524ZM32.5301 328.587C78.1315 356.408 92.5456 415.929 64.7249 461.53C36.9041 507.132 -22.6163 521.546 -68.2178 493.725C-113.819 465.904 -128.233 406.384 -100.413 360.782C-72.5919 315.181 -13.0714 300.767 32.5301 328.587Z" fill="url(#paint1_linear_1_527)"/>
<rect x="80" y="580" width="1280" height="1" fill="#3D414C"/>
<path d="M80 184L1360 184" stroke="#3D414C"/>
<defs>
<linearGradient id="paint0_linear_1_527" x1="1699.03" y1="867.631" x2="1032" y2="483.423" gradientUnits="userSpaceOnUse">
<stop stop-color="white"/>
<stop offset="1" stop-color="white" stop-opacity="0"/>
</linearGradient>
<linearGradient id="paint1_linear_1_527" x1="-173.212" y1="316.368" x2="137.524" y2="505.944" gradientUnits="userSpaceOnUse">
<stop stop-color="white"/>
<stop offset="1" stop-color="white" stop-opacity="0"/>
</linearGradient>
</defs>
</svg>
