<svg width="375" height="1067" viewBox="0 0 375 1067" fill="none" xmlns="http://www.w3.org/2000/svg">
<g clip-path="url(#clip0_9_317)">
<path fill-rule="evenodd" clip-rule="evenodd" d="M334 0.500244C345.046 0.500244 354 9.45455 354 20.5002V188.5C354 199.546 362.954 208.5 374 208.5H375V818V1067.5H0V818V208.5H1.00002C12.0457 208.5 21 199.546 21 188.5V20.5002C21 9.45455 29.9543 0.500244 41 0.500244H334Z" fill="#0C111F"/>
<path opacity="0.2" d="M-167.132 544.024C-81.3241 596.374 30.6745 569.251 83.0243 483.444C135.374 397.636 108.251 285.638 22.4439 233.288C-63.3636 180.938 -175.362 208.061 -227.712 293.868C-280.062 379.676 -252.939 491.674 -167.132 544.024ZM-21.9699 306.087C23.6315 333.908 38.0456 393.428 10.2249 439.03C-17.5959 484.631 -77.1163 499.045 -122.718 471.225C-168.319 443.404 -182.733 383.884 -154.913 338.282C-127.092 292.681 -67.5714 278.266 -21.9699 306.087Z" fill="url(#paint0_linear_9_317)"/>
<rect x="24" y="954.5" width="327" height="1" fill="#3D414C"/>
<path opacity="0.2" d="M252.27 1243.99C366.742 1313.83 516.154 1277.65 585.992 1163.17C655.829 1048.7 619.646 899.29 505.174 829.452C390.702 759.615 241.29 795.798 171.452 910.27C101.615 1024.74 137.798 1174.15 252.27 1243.99ZM445.924 926.571C506.758 963.685 525.988 1043.09 488.873 1103.92C451.759 1164.76 372.355 1183.99 311.52 1146.87C250.686 1109.76 231.456 1030.36 268.571 969.52C305.685 908.685 385.089 889.456 445.924 926.571Z" fill="url(#paint1_linear_9_317)"/>
<path d="M24 208.5L351 208.5" stroke="#3D414C"/>
</g>
<defs>
<linearGradient id="paint0_linear_9_317" x1="-227.712" y1="293.868" x2="83.0243" y2="483.444" gradientUnits="userSpaceOnUse">
<stop stop-color="white"/>
<stop offset="1" stop-color="white" stop-opacity="0"/>
</linearGradient>
<linearGradient id="paint1_linear_9_317" x1="712.027" y1="1252.63" x2="44.9999" y2="868.423" gradientUnits="userSpaceOnUse">
<stop stop-color="white"/>
<stop offset="1" stop-color="white" stop-opacity="0"/>
</linearGradient>
<clipPath id="clip0_9_317">
<rect width="375" height="1067" fill="white"/>
</clipPath>
</defs>
</svg>
