<svg width="1440" height="1303" viewBox="0 0 1440 1303" fill="none" xmlns="http://www.w3.org/2000/svg">
<g clip-path="url(#clip0_1_475)">
<rect width="1440" height="1303" transform="translate(0 0.000244141)" fill="#0C111F"/>
<path opacity="0.2" d="M1252.27 1453.99C1366.74 1523.83 1516.15 1487.65 1585.99 1373.17C1655.83 1258.7 1619.65 1109.29 1505.17 1039.45C1390.7 969.615 1241.29 1005.8 1171.45 1120.27C1101.61 1234.74 1137.8 1384.15 1252.27 1453.99ZM1445.92 1136.57C1506.76 1173.69 1525.99 1253.09 1488.87 1313.92C1451.76 1374.76 1372.36 1393.99 1311.52 1356.87C1250.69 1319.76 1231.46 1240.36 1268.57 1179.52C1305.69 1118.69 1385.09 1099.46 1445.92 1136.57Z" fill="url(#paint0_linear_1_475)"/>
<path opacity="0.2" d="M-18.6316 261.524C67.1759 313.874 179.175 286.751 231.524 200.944C283.874 115.136 256.751 3.13784 170.944 -49.212C85.1364 -101.562 -26.8622 -74.439 -79.2121 11.3685C-131.562 97.176 -104.439 209.175 -18.6316 261.524ZM126.53 23.5875C172.132 51.4082 186.546 110.929 158.725 156.53C130.904 202.132 71.3837 216.546 25.7822 188.725C-19.8192 160.904 -34.2334 101.384 -6.41261 55.7823C21.4081 10.1808 80.9286 -4.23329 126.53 23.5875Z" fill="url(#paint1_linear_1_475)"/>
<path d="M0.489629 1144L0.489579 0.000262925M180.428 1144L180.428 0.000262925M360.367 1144L360.367 0.000262925M540.306 1144L540.306 0.000262925M720.245 1144L720.245 0.000262925M900.184 1144L900.184 0.000262925M1080.12 1144L1080.12 0.000262925M1260.06 1144L1260.06 0.000262925M1440 1144L1440 0.000262925M0 31.9866H1439.51M0 211.967L1439.51 211.967M0 391.947L1439.51 391.947M0 571.928L1439.51 571.927M0 751.908L1439.51 751.908M0 931.888L1439.51 931.888M0 1111.87L1439.51 1111.87" stroke="url(#paint2_linear_1_475)" stroke-opacity="0.3"/>
</g>
<defs>
<linearGradient id="paint0_linear_1_475" x1="1712.03" y1="1462.63" x2="1045" y2="1078.42" gradientUnits="userSpaceOnUse">
<stop stop-color="white"/>
<stop offset="1" stop-color="white" stop-opacity="0"/>
</linearGradient>
<linearGradient id="paint1_linear_1_475" x1="-79.2121" y1="11.3685" x2="231.524" y2="200.944" gradientUnits="userSpaceOnUse">
<stop stop-color="white"/>
<stop offset="1" stop-color="white" stop-opacity="0"/>
</linearGradient>
<linearGradient id="paint2_linear_1_475" x1="612.425" y1="-95.9998" x2="460.527" y2="1084.53" gradientUnits="userSpaceOnUse">
<stop stop-color="white"/>
<stop offset="1" stop-color="white" stop-opacity="0"/>
</linearGradient>
<clipPath id="clip0_1_475">
<rect width="1440" height="1303" fill="white" transform="translate(0 0.000244141)"/>
</clipPath>
</defs>
</svg>
