<svg width="52" height="52" viewBox="0 0 52 52" fill="none" xmlns="http://www.w3.org/2000/svg">
<g id="Wallet">
<g id="Vector">
<path d="M25.8702 4.78833L20.6485 16.9433H15.4268C14.5602 16.9433 13.7152 17.0083 12.8918 17.1817L15.0585 11.9817L15.1452 11.7867L15.2752 11.44C15.3402 11.2883 15.3835 11.1583 15.4485 11.05C17.9619 5.22166 20.7785 3.40166 25.8702 4.78833Z" fill="url(#paint0_linear_244_186)"/>
<path d="M40.5818 17.5283L40.5385 17.5067C39.2385 17.1383 37.9168 16.9433 36.5735 16.9433H23.0102L27.8852 5.61166L27.9502 5.45999C28.2535 5.56833 28.5785 5.72 28.9035 5.82833L33.6919 7.84333C36.3569 8.94833 38.2202 10.0967 39.3685 11.4833C39.5635 11.7433 39.7369 11.9817 39.9102 12.2633C40.1052 12.5667 40.2569 12.87 40.3435 13.195C40.4302 13.39 40.4952 13.5633 40.5385 13.7583C40.8635 14.8633 40.8852 16.12 40.5818 17.5283Z" fill="url(#paint1_linear_244_186)"/>
<path d="M27.1269 38.2633H27.6685C28.3185 38.2633 28.8602 37.6783 28.8602 36.9633C28.8602 36.0533 28.6002 35.9233 28.0368 35.7067L27.1269 35.3817V38.2633Z" fill="url(#paint2_linear_244_186)"/>
<path d="M39.6285 20.6267C38.6535 20.345 37.6352 20.1933 36.5735 20.1933H15.4268C13.9535 20.1933 12.5668 20.475 11.2668 21.0383C7.49685 22.6633 4.85352 26.4117 4.85352 30.7667V34.9917C4.85352 35.5117 4.89685 36.01 4.96185 36.53C5.43852 43.42 9.12185 47.1033 16.0118 47.5583C16.5102 47.6233 17.0085 47.6667 17.5502 47.6667H34.4502C42.4669 47.6667 46.6918 43.8533 47.1035 36.27C47.1252 35.8583 47.1469 35.425 47.1469 34.9917V30.7667C47.1469 25.9783 43.9619 21.9483 39.6285 20.6267ZM28.7735 33.5833C29.7702 33.93 31.1135 34.6667 31.1135 36.9633C31.1135 38.935 29.5752 40.5167 27.6685 40.5167H27.1269V40.9933C27.1269 41.6217 26.6285 42.12 26.0002 42.12C25.3719 42.12 24.8735 41.6217 24.8735 40.9933V40.5167H24.6785C22.5985 40.5167 20.8869 38.7617 20.8869 36.595C20.8869 35.9667 21.3852 35.4683 22.0135 35.4683C22.6418 35.4683 23.1402 35.9667 23.1402 36.595C23.1402 37.505 23.8335 38.2633 24.6785 38.2633H24.8735V34.6017L23.2269 34.0167C22.2302 33.67 20.8869 32.9333 20.8869 30.6367C20.8869 28.665 22.4252 27.0833 24.3319 27.0833H24.8735V26.6067C24.8735 25.9783 25.3719 25.48 26.0002 25.48C26.6285 25.48 27.1269 25.9783 27.1269 26.6067V27.0833H27.3218C29.4018 27.0833 31.1135 28.8383 31.1135 31.005C31.1135 31.6333 30.6152 32.1317 29.9869 32.1317C29.3585 32.1317 28.8602 31.6333 28.8602 31.005C28.8602 30.095 28.1668 29.3367 27.3218 29.3367H27.1269V32.9983L28.7735 33.5833Z" fill="url(#paint3_linear_244_186)"/>
<path d="M23.1402 30.6367C23.1402 31.5467 23.4002 31.6767 23.9635 31.8933L24.8735 32.2183V29.3367H24.3319C23.6602 29.3367 23.1402 29.9217 23.1402 30.6367Z" fill="url(#paint4_linear_244_186)"/>
</g>
</g>
<defs>
<linearGradient id="paint0_linear_244_186" x1="47.1468" y1="47.6667" x2="-1.03087" y2="39.6324" gradientUnits="userSpaceOnUse">
<stop stop-color="#00796D"/>
<stop offset="1" stop-color="#38C682"/>
</linearGradient>
<linearGradient id="paint1_linear_244_186" x1="47.1468" y1="47.6667" x2="-1.03087" y2="39.6324" gradientUnits="userSpaceOnUse">
<stop stop-color="#00796D"/>
<stop offset="1" stop-color="#38C682"/>
</linearGradient>
<linearGradient id="paint2_linear_244_186" x1="47.1468" y1="47.6667" x2="-1.03087" y2="39.6324" gradientUnits="userSpaceOnUse">
<stop stop-color="#00796D"/>
<stop offset="1" stop-color="#38C682"/>
</linearGradient>
<linearGradient id="paint3_linear_244_186" x1="47.1468" y1="47.6667" x2="-1.03087" y2="39.6324" gradientUnits="userSpaceOnUse">
<stop stop-color="#00796D"/>
<stop offset="1" stop-color="#38C682"/>
</linearGradient>
<linearGradient id="paint4_linear_244_186" x1="47.1468" y1="47.6667" x2="-1.03087" y2="39.6324" gradientUnits="userSpaceOnUse">
<stop stop-color="#00796D"/>
<stop offset="1" stop-color="#38C682"/>
</linearGradient>
</defs>
</svg>
