<svg width="52" height="52" viewBox="0 0 52 52" fill="none" xmlns="http://www.w3.org/2000/svg">
<g id="Maximize">
<path id="Vector" d="M35.0785 4.33333H16.9218C9.03516 4.33333 4.3335 9.03499 4.3335 16.9217V35.0567C4.3335 42.965 9.03516 47.6667 16.9218 47.6667H35.0568C42.9435 47.6667 47.6452 42.965 47.6452 35.0783V16.9217C47.6668 9.03499 42.9652 4.33333 35.0785 4.33333ZM24.9818 29.315L16.9218 37.375H21.6668C22.5552 37.375 23.2918 38.1117 23.2918 39C23.2918 39.8883 22.5552 40.625 21.6668 40.625H13.0002C12.7835 40.625 12.5668 40.5817 12.3718 40.495C11.9818 40.3217 11.6568 40.0183 11.4835 39.6067C11.4185 39.4117 11.3752 39.2167 11.3752 39V30.3333C11.3752 29.445 12.1118 28.7083 13.0002 28.7083C13.8885 28.7083 14.6252 29.445 14.6252 30.3333V35.0783L22.6852 27.0183C23.3135 26.39 24.3535 26.39 24.9818 27.0183C25.6102 27.6467 25.6102 28.6867 24.9818 29.315ZM40.6252 21.6667C40.6252 22.555 39.8885 23.2917 39.0002 23.2917C38.1118 23.2917 37.3752 22.555 37.3752 21.6667V16.9217L29.3152 24.9817C28.9902 25.3067 28.5785 25.4583 28.1668 25.4583C27.7552 25.4583 27.3435 25.3067 27.0185 24.9817C26.3902 24.3533 26.3902 23.3133 27.0185 22.685L35.0785 14.625H30.3335C29.4452 14.625 28.7085 13.8883 28.7085 13C28.7085 12.1117 29.4452 11.375 30.3335 11.375H39.0002C39.2168 11.375 39.4118 11.4183 39.6285 11.505C40.0185 11.6783 40.3435 11.9817 40.5168 12.3933C40.5818 12.5883 40.6252 12.7833 40.6252 13V21.6667Z" fill="url(#paint0_linear_244_180)"/>
</g>
<defs>
<linearGradient id="paint0_linear_244_180" x1="47.6452" y1="47.6667" x2="-1.62845" y2="39.2543" gradientUnits="userSpaceOnUse">
<stop stop-color="#00796D"/>
<stop offset="1" stop-color="#38C682"/>
</linearGradient>
</defs>
</svg>
