<svg width="52" height="52" viewBox="0 0 52 52" fill="none" xmlns="http://www.w3.org/2000/svg">
<g id="Start">
<g id="Vector">
<path d="M12.4364 34.6667C12.6748 33.605 12.2414 32.0883 11.4831 31.33L6.21811 26.065C4.57144 24.4183 3.92144 22.6633 4.39811 21.1467C4.89644 19.63 6.43478 18.59 8.73144 18.2L15.4914 17.0733C16.4664 16.9 17.6581 16.0333 18.1131 15.145L21.8398 7.67C22.9231 5.52499 24.3964 4.33333 25.9998 4.33333C27.6031 4.33333 29.0764 5.52499 30.1598 7.67L33.8864 15.145C34.1681 15.7083 34.7531 16.25 35.3814 16.6183L12.0464 39.9533C11.7431 40.2567 11.2231 39.975 11.3098 39.5417L12.4364 34.6667Z" fill="url(#paint0_linear_244_192)"/>
<path d="M40.5164 31.33C39.7364 32.11 39.3031 33.605 39.5631 34.6667L41.0581 41.1883C41.6864 43.8967 41.2964 45.9333 39.9531 46.9083C39.4114 47.2983 38.7614 47.4933 38.0031 47.4933C36.8981 47.4933 35.5981 47.0817 34.1681 46.2367L27.8198 42.4667C26.8231 41.8817 25.1764 41.8817 24.1798 42.4667L17.8314 46.2367C15.4264 47.645 13.3681 47.8833 12.0464 46.9083C11.5481 46.54 11.1798 46.0417 10.9414 45.3917L37.2881 19.045C38.2848 18.0483 39.6931 17.5933 41.0581 17.8317L43.2464 18.2C45.5431 18.59 47.0814 19.63 47.5798 21.1467C48.0564 22.6633 47.4064 24.4183 45.7598 26.065L40.5164 31.33Z" fill="url(#paint1_linear_244_192)"/>
</g>
</g>
<defs>
<linearGradient id="paint0_linear_244_192" x1="47.7323" y1="47.4988" x2="-1.71808" y2="38.9892" gradientUnits="userSpaceOnUse">
<stop stop-color="#00796D"/>
<stop offset="1" stop-color="#38C682"/>
</linearGradient>
<linearGradient id="paint1_linear_244_192" x1="47.7323" y1="47.4988" x2="-1.71808" y2="38.9892" gradientUnits="userSpaceOnUse">
<stop stop-color="#00796D"/>
<stop offset="1" stop-color="#38C682"/>
</linearGradient>
</defs>
</svg>
